<svg id="Group_8834" data-name="Group 8834" xmlns="http://www.w3.org/2000/svg" xmlns:xlink="http://www.w3.org/1999/xlink" width="89.17" height="69.586" viewBox="0 0 89.17 69.586">
  <defs>
    <style>
      .cls-1, .cls-4 {
        fill: none;
      }

      .cls-2 {
        clip-path: url(#clip-path);
      }

      .cls-3 {
        fill: #e1001a;
      }

      .cls-4 {
        stroke: #fff;
        stroke-width: 1.196px;
      }
    </style>
    <clipPath id="clip-path">
      <rect id="Rectangle_2801" data-name="Rectangle 2801" class="cls-1" width="89.17" height="69.586"/>
    </clipPath>
  </defs>
  <g id="Group_8833" data-name="Group 8833" class="cls-2">
    <path id="Path_24359" data-name="Path 24359" class="cls-3" d="M55.635,12.171h7.671l.657-3.048H58.638A1.8,1.8,0,0,1,56.875,6.8l1.02-4.51C58.21.478,60.845.464,60.845.464H70L69.314,3.61H61.647l-.626,2.757H66.63a2,2,0,0,1,1.562,2.1l-1.151,5.1a2.39,2.39,0,0,1-2.615,1.889H54.92Z" transform="translate(-35.124 -0.297)"/>
    <path id="Path_24360" data-name="Path 24360" class="cls-3" d="M96.125.4l-2.884,12.64s-.779,1.966,2.389,2.378h3.307s.743.276,2.12-.824l-.191.824h5.51l.689-3.306s-1.426.206-1.115-1.238L108.313.405h-4.055l-2.408,10.676s-.066,1.171-2.5.755c0,0-1.79.019-1.478-1.376L100.147.405Z" transform="translate(-59.579 -0.258)"/>
    <path id="Path_24361" data-name="Path 24361" class="cls-3" d="M134.073.027l-5.149,23.73h4.1l4.63-20.7h2.761a1.092,1.092,0,0,1,1.309,1.288l-1.464,6.476a1.569,1.569,0,0,1-1.637,1.05h-1.927l-.829,3.306h7.991L144.768,12h-1.6s.916-.208,1.246-1.636l1.8-7.99s.132-2.155-1.672-2.342Z" transform="translate(-82.454 -0.017)"/>
    <path id="Path_24362" data-name="Path 24362" class="cls-3" d="M187.619.011a1.721,1.721,0,0,1,1.935,2.084l-1.179,5.217a1.811,1.811,0,0,1-1.858,1.515h-6.7l-.411,1.807c-.467,1.269,1.048,1.223,1.048,1.223h6.894l-.693,3.307h-9.506c-2.892-.278-2.1-2.651-2.1-2.651L177.4,2.079c.825-2.342,2.5-2.069,2.5-2.069Zm-3.741,5.946a1.665,1.665,0,0,0,1.029-.709l.365-1.62c.111-1.1-.958-.861-.958-.861h-2.066a1.179,1.179,0,0,0-1.293,1.014l-.486,2.151Z" transform="translate(-111.89 0)"/>
    <path id="Path_24363" data-name="Path 24363" class="cls-3" d="M215.084.027l-3.457,15.292h3.994l2.451-11.108s.031-1.291,1.134-1.291h4.59l.722-2.859h-3.935s-1.6-.036-1.753.793l.218-.827Z" transform="translate(-135.347 -0.017)"/>
    <path id="Path_24364" data-name="Path 24364" class="cls-3" d="M9.364,73.582S11.024,66.22,21,66.22H41.025s7.849.225,5.814,7.708L40.027,104.1s-1.718,7.622-11.678,7.617H.748l2.136-9.459H22.657s3.714.833,4.951-4.072H11.632s-8.045.749-6-8.079S9.364,73.582,9.364,73.582M20.336,85.888C19.9,87.572,21.919,87.9,21.919,87.9H27.8c2.215.362,2.673-2.368,2.673-2.368L32.013,78.7c.2-2.711-2.013-2.2-2.013-2.2H24.86c-3.109-.178-2.908,2.22-2.908,2.22Z" transform="translate(-0.478 -42.351)"/>
    <path id="Path_24365" data-name="Path 24365" class="cls-4" d="M9.364,73.582S11.024,66.22,21,66.22H41.025s7.849.225,5.814,7.708L40.027,104.1s-1.718,7.622-11.678,7.617H.748l2.136-9.459H22.657s3.714.833,4.951-4.072H11.632s-8.045.749-6-8.079S9.364,73.582,9.364,73.582ZM20.336,85.888C19.9,87.572,21.919,87.9,21.919,87.9H27.8c2.215.362,2.673-2.368,2.673-2.368L32.013,78.7c.2-2.711-2.013-2.2-2.013-2.2H24.86c-3.109-.178-2.908,2.22-2.908,2.22Z" transform="translate(-0.478 -42.351)"/>
    <path id="Path_24366" data-name="Path 24366" class="cls-3" d="M113.646,73.224s1.16-7.233,11.639-7.363h20.02s7.849.225,5.819,7.712l-6.814,30.178s-1.95,7.746-11.679,7.618h-27.6l2.135-9.464h19.767s3.723.831,4.958-4.068H115.917s-8.049.744-6.005-8.083,3.734-16.531,3.734-16.531m10.971,12.31c-.438,1.681,1.588,2.016,1.588,2.016h5.878c2.213.361,2.671-2.369,2.671-2.369l1.545-6.835c.2-2.709-2.013-2.2-2.013-2.2H129.14c-3.113-.175-2.905,2.221-2.905,2.221Z" transform="translate(-67.174 -42.122)"/>
    <path id="Path_24367" data-name="Path 24367" class="cls-4" d="M113.646,73.224s1.16-7.233,11.639-7.363h20.02s7.849.225,5.819,7.712l-6.814,30.178s-1.95,7.746-11.679,7.618h-27.6l2.135-9.464h19.767s3.723.831,4.958-4.068H115.917s-8.049.744-6.005-8.083S113.646,73.224,113.646,73.224Zm10.971,12.31c-.438,1.681,1.588,2.016,1.588,2.016h5.878c2.213.361,2.671-2.369,2.671-2.369l1.545-6.835c.2-2.709-2.013-2.2-2.013-2.2H129.14c-3.113-.175-2.905,2.221-2.905,2.221Z" transform="translate(-67.174 -42.122)"/>
  </g>
</svg>
